<svg xmlns="http://www.w3.org/2000/svg" viewBox="0 0 99.75 99.75"><defs><style>.cls-1{fill:#bec8d2;}.cls-1,.cls-2{stroke:#283246;stroke-miterlimit:10;stroke-width:3.75px;}.cls-2{fill:#283246;}</style></defs><g id="Capa_2" data-name="Capa 2"><g id="Capa_2-2" data-name="Capa 2"><circle class="cls-1" cx="49.88" cy="49.88" r="48"/><path class="cls-2" d="M23,62.63l-6.41-6.4a8.2,8.2,0,0,1-2.23-9,11.9,11.9,0,0,1,2.53-4.11l8.44-8.45,1.17,1.17L18,44.28c-.22.23-5.4,5.57-.24,10.73L23,60.25,37,46.32l1.16,1.16Z"/><path class="cls-2" d="M71.41,68.12,56.58,83c-3.46,3.46-6.87,3.34-9.11,2.64a10.44,10.44,0,0,1-4-2.35l-7.36-7.35,1.22-1.22L44.69,82c.21.21,5.32,5.15,10.72-.25L60.9,76.3h0L70.24,67Z"/><path class="cls-2" d="M62.63,23l-6.4-6.41a8.2,8.2,0,0,0-9-2.23,11.9,11.9,0,0,0-4.11,2.53L30.93,29l1.17,1.17L44.28,18c.23-.22,5.57-5.4,10.73-.24L60.25,23,42.58,40.69l1.16,1.16Z"/><path class="cls-2" d="M71.41,68.12,83,56.58c3.46-3.46,3.34-6.87,2.64-9.11a10.44,10.44,0,0,0-2.35-4L68.75,29,67.53,30.2,82,44.69c.21.21,5.15,5.32-.25,10.72L76.3,60.9h0L70.24,67Z"/><rect class="cls-2" x="42.76" y="44.22" width="10.79" height="1.7" transform="translate(45.98 -20.85) rotate(45)"/><rect class="cls-2" x="54.8" y="60.24" width="18.75" height="1.7" transform="translate(61.99 -27.49) rotate(45)"/><rect class="cls-2" x="21.98" y="65" width="10.8" height="1.7" transform="translate(54.58 -0.08) rotate(45)"/><circle class="cls-2" cx="50.12" cy="74.7" r="1.87"/></g></g></svg>